<svg id="_x31__px" height="512" viewBox="0 0 24 24" width="512" xmlns="http://www.w3.org/2000/svg"><path d="m19.5 12.5h-15c-.276 0-.5-.224-.5-.5v-7.5c0-.276.224-.5.5-.5h15c.276 0 .5.224.5.5v7.5c0 .276-.224.5-.5.5zm-14.5-1h14v-6.5h-14z"/><path d="m19.5 22h-15c-.276 0-.5-.224-.5-.5v-7.5c0-.276.224-.5.5-.5h15c.276 0 .5.224.5.5v7.5c0 .276-.224.5-.5.5zm-14.5-1h14v-6.5h-14z"/><path d="m11.5 3h-4c-.276 0-.5-.224-.5-.5v-1c0-.827.673-1.5 1.5-1.5h2c.827 0 1.5.673 1.5 1.5v1c0 .276-.224.5-.5.5zm-3.5-1h3v-.5c0-.276-.224-.5-.5-.5h-2c-.276 0-.5.224-.5.5z"/><path d="m20.5 5h-17c-.827 0-1.5-.673-1.5-1.5s.673-1.5 1.5-1.5h17c.827 0 1.5.673 1.5 1.5s-.673 1.5-1.5 1.5zm-17-2c-.276 0-.5.224-.5.5s.224.5.5.5h17c.276 0 .5-.224.5-.5s-.224-.5-.5-.5z"/><path d="m20.5 24h-17c-.827 0-1.5-.673-1.5-1.5s.673-1.5 1.5-1.5h17c.827 0 1.5.673 1.5 1.5s-.673 1.5-1.5 1.5zm-17-2c-.276 0-.5.224-.5.5s.224.5.5.5h17c.276 0 .5-.224.5-.5s-.224-.5-.5-.5z"/><path d="m20.5 14.5h-17c-.827 0-1.5-.673-1.5-1.5s.673-1.5 1.5-1.5h17c.827 0 1.5.673 1.5 1.5s-.673 1.5-1.5 1.5zm-17-2c-.276 0-.5.224-.5.5s.224.5.5.5h17c.276 0 .5-.224.5-.5s-.224-.5-.5-.5z"/></svg>