<?xml version="1.0"?>
<svg xmlns="http://www.w3.org/2000/svg" xmlns:xlink="http://www.w3.org/1999/xlink" xmlns:svgjs="http://svgjs.com/svgjs" version="1.1" width="512" height="512" x="0" y="0" viewBox="0 0 407 407.14155" style="enable-background:new 0 0 512 512" xml:space="preserve" class=""><rect width="407" height="407.14155" fill="#01203d" shape="square"/><g transform="matrix(0.7,0,0,0.7,59.09794932603836,61.07094719409943)"><path xmlns="http://www.w3.org/2000/svg" d="m245.828125 63.425781v-12.226562h17.066406c13.175781 0 23.894531-10.71875 23.894531-23.894531 0-13.171876-10.71875-23.890626-23.894531-23.890626h-81.917969c-13.175781 0-23.894531 10.71875-23.894531 23.890626 0 13.175781 10.71875 23.894531 23.894531 23.894531h17.066407v12.027343c-28.523438 3.835938-54.847657 14.644532-77.21875 30.667969l-8.277344-8.800781c-6.859375-7.289062-18.367187-7.640625-25.636719-.789062-3.535156 3.316406-5.5625 7.8125-5.707031 12.660156-.15625 4.84375 1.59375 9.453125 4.910156 12.984375l7.539063 8.015625c-28.082032 30.734375-45.246094 71.609375-45.246094 116.421875 0 95.257812 77.5 172.753906 172.753906 172.753906s172.753906-77.496094 172.753906-172.753906c0-86.878907-64.476562-158.953125-148.085937-170.960938zm-75.09375-36.121093c0-5.644532 4.59375-10.238282 10.242187-10.238282h81.917969c5.648438 0 10.242188 4.59375 10.242188 10.238282 0 5.648437-4.59375 10.242187-10.242188 10.242187h-81.917969c-5.648437 0-10.242187-4.59375-10.242187-10.242187zm40.960937 23.894531h20.480469v10.824219c-3.644531-.230469-7.3125-.386719-11.015625-.386719-3.175781 0-6.332031.097656-9.464844.269531zm-115.4375 43.050781c.871094-.816406 2.070313-1.253906 3.210938-1.214844 1.199219.035156 2.3125.539063 3.132812 1.414063l7.386719 7.851562c-2.289062 1.929688-4.519531 3.925781-6.710937 5.972657l-7.214844-7.679688c-.820312-.875-1.253906-2.015625-1.214844-3.210938.035156-1.199218.535156-2.308593 1.410156-3.132812zm124.902344 299.238281c-87.722656 0-159.097656-71.371093-159.097656-159.101562 0-87.726563 71.371094-159.101563 159.097656-159.101563 87.730469 0 159.101563 71.375 159.101563 159.101563 0 87.730469-71.375 159.101562-159.101563 159.101562zm0 0" fill="#ffffff" data-original="#000000" style=""/><path xmlns="http://www.w3.org/2000/svg" d="m221.160156 95.671875c-75.988281 0-137.832031 61.425781-138.644531 137.226563-.335937.804687-.527344 1.691406-.527344 2.617187 0 1.019531.253907 1.964844.652344 2.832031 2.125 74.648438 63.363281 134.757813 138.519531 134.757813 76.488282 0 138.714844-62.226563 138.714844-138.71875 0-76.488281-62.226562-138.714844-138.714844-138.714844zm4.1875 263.570313v-21.324219c0-3.769531-3.050781-6.824219-6.824218-6.824219-3.773438 0-6.828126 3.054688-6.828126 6.824219v21.058593c-61.90625-4.671874-111.257812-54.523437-115.195312-116.628906h26.449219c3.773437 0 6.824219-3.058594 6.824219-6.828125s-3.050782-6.828125-6.824219-6.828125h-26.566407c2.867188-63.144531 52.660157-114.160156 115.3125-118.886718v23.316406c0 3.769531 3.054688 6.824218 6.828126 6.824218 3.773437 0 6.824218-3.054687 6.824218-6.824218v-23.582032c65.105469 2.171876 117.640625 54.242188 120.585938 119.152344h-25.011719c-3.773437 0-6.828125 3.058594-6.828125 6.828125s3.054688 6.828125 6.828125 6.828125h24.898437c-4.050781 63.859375-56.125 114.75-120.472656 116.894532zm0 0" fill="#ffffff" data-original="#000000" style=""/><path xmlns="http://www.w3.org/2000/svg" d="m286.789062 228.691406h-41.757812c-1.054688-4.40625-3.253906-8.363281-6.328125-11.5l37.105469-55.964844c2.085937-3.144531 1.226562-7.378906-1.914063-9.464843-3.148437-2.089844-7.386719-1.226563-9.460937 1.917969l-37.664063 56.816406c-1.808593-.425782-3.671875-.707032-5.609375-.707032-11.59375 0-21.28125 8.089844-23.867187 18.902344h-19.730469c-3.773438 0-6.828125 3.058594-6.828125 6.828125s3.054687 6.828125 6.828125 6.828125h20.433594c.808594 2.339844 1.917968 4.527344 3.355468 6.492188l-15.824218 23.867187c-2.085938 3.140625-1.226563 7.378907 1.914062 9.460938 1.160156.769531 2.472656 1.136719 3.765625 1.136719 2.214844 0 4.378907-1.074219 5.695313-3.050782l15.261718-23.023437c2.792969 1.101562 5.816407 1.757812 8.996094 1.757812 10.765625 0 19.835938-6.996093 23.164063-16.640625h42.460937c3.773438 0 6.828125-3.058594 6.828125-6.828125s-3.050781-6.828125-6.824219-6.828125zm-65.628906 16.644532c-6.03125 0-10.945312-4.910157-10.945312-10.945313 0-6.039063 4.914062-10.949219 10.945312-10.949219 6.035156 0 10.949219 4.910156 10.949219 10.949219 0 6.035156-4.914063 10.945313-10.949219 10.945313zm0 0" fill="#ffffff" data-original="#000000" style=""/><path xmlns="http://www.w3.org/2000/svg" d="m320.921875 64.851562c1.746094 0 3.492187-.667968 4.824219-2l51.203125-51.199218c2.664062-2.664063 2.664062-6.988282 0-9.652344-2.667969-2.667969-6.988281-2.667969-9.652344 0l-51.203125 51.199219c-2.664062 2.664062-2.664062 6.988281 0 9.652343 1.335938 1.332032 3.082031 2 4.828125 2zm0 0" fill="#ffffff" data-original="#000000" style=""/><path xmlns="http://www.w3.org/2000/svg" d="m54.574219 344.855469c-2.664063-2.667969-6.984375-2.667969-9.652344 0l-42.851563 42.847656c-2.664062 2.667969-2.664062 6.988281 0 9.652344 1.332032 1.335937 3.082032 2.003906 4.828126 2.003906 1.742187 0 3.492187-.667969 4.824218-2.003906l42.851563-42.847657c2.667969-2.664062 2.667969-6.984374 0-9.652343zm0 0" fill="#ffffff" data-original="#000000" style=""/><path xmlns="http://www.w3.org/2000/svg" d="m350.226562 87.332031c-2.664062 2.667969-2.664062 6.988281 0 9.652344 1.335938 1.335937 3.082032 2 4.828126 2 1.746093 0 3.492187-.664063 4.828124-2l26.429688-26.429687c2.667969-2.664063 2.667969-6.984376 0-9.652344-2.664062-2.664063-6.984375-2.664063-9.652344 0zm0 0" fill="#ffffff" data-original="#000000" style=""/><path xmlns="http://www.w3.org/2000/svg" d="m72.875 364.6875-26.433594 26.429688c-2.664062 2.667968-2.664062 6.988281 0 9.652343 1.332032 1.332031 3.082032 2 4.828125 2 1.746094 0 3.492188-.667969 4.824219-2l26.433594-26.429687c2.664062-2.664063 2.664062-6.984375 0-9.652344-2.664063-2.664062-6.984375-2.664062-9.652344 0zm0 0" fill="#ffffff" data-original="#000000" style=""/></g></svg>
