<?xml version="1.0"?>
<svg xmlns="http://www.w3.org/2000/svg" xmlns:xlink="http://www.w3.org/1999/xlink" xmlns:svgjs="http://svgjs.com/svgjs" version="1.1" width="512" height="512" x="0" y="0" viewBox="0 0 58 60" style="enable-background:new 0 0 512 512" xml:space="preserve" class=""><g><g xmlns="http://www.w3.org/2000/svg" id="Page-1" fill="none" fill-rule="evenodd"><g id="022---Gas-Mask" fill="rgb(0,0,0)" fill-rule="nonzero" transform="translate(-1)"><path id="Shape" d="m30 39c-2.7614237 0-5 2.2385763-5 5s2.2385763 5 5 5 5-2.2385763 5-5c-.0033061-2.7600532-2.2399468-4.9966939-5-5zm0 8c-1.6568542 0-3-1.3431458-3-3s1.3431458-3 3-3 3 1.3431458 3 3-1.3431458 3-3 3z" fill="#01203d" data-original="#000000" style="" class=""/><path id="Shape" d="m18.832 13.156c3.6931152.588035 7.4284556.8703261 11.168.844 3.7395444.0263261 7.4748848-.255965 11.168-.844.3522639-.0600206.6457485-.3034125.769901-.6384923.1241526-.3350797.0601114-.7109408-.168-.986-.2281113-.2750591-.5856371-.4075283-.937901-.3475077-3.5820625.5695913-7.2050312.8425181-10.832.816-3.6269688.0265181-7.2499375-.2464087-10.832-.816-.5445528-.0927838-1.0612162.2734472-1.154.818s.2734472 1.0612162.818 1.154z" fill="#01203d" data-original="#000000" style="" class=""/><path id="Shape" d="m2.2 27.175c.53124047.4424146 1.20066286.6847795 1.892.685.1 0 .2 0 .3-.015l2.542-.255c.3473189 3.171782 1.01300738 6.3005514 1.987 9.339l-6.259 2.3c-.56674385.2251962-1.01589075.6736198-1.242 1.24-.9 1.985-.329 6.287 1.456 10.961 1.712 4.441 4.364 8.57 6.709 8.57.23037928-.0001641.4589087-.0411301.675-.121l7.7-2.835c.827 1.233 2.754 2.956 7.04 2.956h10c4.286 0 6.213-1.723 7.044-2.955l7.694 2.834c.2161254.0796313.4446714.1202617.675.12 2.345 0 5-4.13 6.709-8.57 1.785-4.674 2.356-8.976 1.456-10.961-.226556-.5638978-.6743725-1.0102686-1.239-1.235h-.01l-6.251-2.3c.9729608-3.0387229 1.638627-6.1673875 1.987-9.339l2.543.255c.1.01.2.015.3.015.6913371-.0002205 1.3607595-.2425854 1.892-.685.6145368-.5050018 1.0033672-1.2333843 1.081-2.025l.1-.99c.0807456-.791695-.1563768-1.5830336-.6591845-2.1998685-.5028076-.6168349-1.2300968-1.0086182-2.0218155-1.0891315l-2.576-.25c.145-2.255.216-4.226.249-5.589.0575791-2.1602696-.5692925-4.2834426-1.791-6.066-.0326279-.05006573-.0690693-.0975399-.109-.142-1.7563482-2.41259008-4.486599-3.92862378-7.463-4.144-.552-.045-1.079-.083-1.61-.122v-1.562c0-1.65685425-1.3431458-3-3-3h-1c-1.6568542 0-3 1.34314575-3 3v1.155c-3.646-.155-5.975-.155-6-.155s-2.354 0-6 .155v-1.155c0-1.65685425-1.3431458-3-3-3h-1c-1.6568542 0-3 1.34314575-3 3v1.562c-.531.039-1.059.077-1.612.122-2.9758296.21402274-5.70477514 1.73278801-7.455 4.149-.04204537.04241756-.08050986.08824047-.115.137-1.22036629 1.7822976-1.8461726 3.904719-1.788 6.064.033 1.364.1 3.336.249 5.591l-2.579.25c-.79186671.0795479-1.51967531.4704835-2.02324059 1.0867649-.50356529.6162814-.74161616 1.4073995-.66175941 2.1992351l.1.988c.07839293.7925841.46873682 1.5214659 1.085 2.026zm15.514 27.825-5.87 2.163c.265-2.366-.476-5.84-1.636-8.991s-2.847-6.273-4.587-7.9l6.157-2.27h.022c.734 0 3.127 2.709 5 7.8 1.908 5.198 1.5 8.853.914 9.198zm-12.97-4.285c-2.208-5.783-1.878-9.263-1.4-9.6.539-.067 2.976 2.271 4.993 7.751s1.683 8.794 1.246 9.134h-.005c-.546.042-2.815-2.047-4.834-7.285zm30.211 3.393c-.783 3.091-3.025 4.028-4.872 3.876-.0552048-.0053341-.1107952-.0053341-.166 0-1.837.154-4.089-.784-4.872-3.876-.033-.186-.111-.567-.3-1.463-.429-2.089-1.734-8.445-1.75-9.191-.0687511-1.7688479.6120974-3.4845861 1.875-4.725 1.3796265-1.2442549 3.2112067-1.8646697 5.063-1.715.0412789.0030012.0827211.0030012.124 0 1.8517933-.1496697 3.6833735.4707451 5.063 1.715 1.2641609 1.2386948 1.9468414 2.9533847 1.88 4.722-.016.749-1.321 7.1-1.75 9.194-.184.896-.262 1.277-.295 1.463zm19.415-13.836c-1.735 1.629-3.42 4.753-4.578 7.9s-1.9 6.625-1.636 8.991l-5.873-2.163c-.587-.347-.991-4 .923-9.2 1.888-5.13 4.333-7.843 5-7.8zm.887 10.442c-2.025 5.251-4.3 7.348-4.81 7.3-.466-.341-.8-3.668 1.221-9.147 2-5.433 4.381-7.757 4.957-7.757h.015c.496.361.818 3.839-1.383 9.604zm.843-27.849c.2646032.0252873.5082513.1548808.6771226.3601532.1688713.2052725.249069.4693316.2228774.7338468l-.1.991c-.0260861.26712-.1574181.5128727-.365.683-.200226.1680967-.4598793.2481565-.72.222l-2.515-.255c.108-1.014.2-2.014.276-2.983zm-18.1-19.865c0-.55228475.4477153-1 1-1h1c.5522847 0 1 .44771525 1 1v3c0 .55228475-.4477153 1-1 1h-1c-.5522847 0-1-.44771525-1-1zm-19 0c0-.55228475.4477153-1 1-1h1c.5522847 0 1 .44771525 1 1v3c0 .55228475-.4477153 1-1 1h-1c-.5522847 0-1-.44771525-1-1zm-9.569 7.154c.039-.047.078-.1.123-.162 1.4144537-1.93441121 3.609506-3.14717758 6-3.315.516-.042 1.009-.077 1.506-.114.2697187 1.41170614 1.5027623 2.43379028 2.94 2.437h1c1.5908791-.00627749 2.9002254-1.25331579 2.984-2.842 3.657-.158 5.991-.158 6.016-.158s2.359 0 6.016.158c.0837746 1.58868421 1.3931209 2.83572251 2.984 2.842h1c1.4383677-.00177339 2.6730672-1.02418678 2.943-2.437.5.037.99.072 1.505.114 2.4019749.17196451 4.6052994 1.39623698 6.02 3.345.032.045.065.09.1.134.9585364 1.4244217 1.4480125 3.1127646 1.4 4.829-.107 4.375-.592 15.042-2.768 21.253l-.309-.114c-1.233-.455-2.631.345-4.153 2.38-1.4373933 2.033953-2.5856714 4.2574798-3.412 6.607-1.49 4.049-2.121 8.648-.893 10.75-.511.813-1.87 2.105-5.315 2.136.877912-.9699403 1.4915733-2.1493959 1.782-3.425.008977-.0328293.0156598-.0662433.02-.1.024-.131.133-.661.289-1.421 1.306-6.363 1.791-8.962 1.791-9.597.0756166-2.3212837-.83225-4.5666194-2.5-6.183-1.7687927-1.6062047-4.1164547-2.421024-6.5-2.256-2.3837648-.1666734-4.7320568.6483645-6.5 2.256-1.66775 1.6163806-2.5756166 3.8617163-2.5 6.183 0 .635.485 3.234 1.791 9.593.156.76.265 1.29.289 1.421.0043402.0337567.011023.0671707.02.1.2890267 1.2786035.9035596 2.4608214 1.784 3.432-3.445-.03-4.806-1.319-5.319-2.133 1.228-2.1.6-6.7-.894-10.753-.8257373-2.3519577-1.9740339-4.5778761-3.412-6.614-1.521-2.034-2.917-2.836-4.153-2.38l-.31.114c-2.174-6.191-2.66-16.873-2.767-21.254-.04686129-1.7154441.44329772-3.4026819 1.402-4.826zm-5.531 12.711 2.526-.244c.077.968.167 1.968.275 2.982l-2.507.252c-.26016687.0266211-.5199975-.0534934-.72-.222-.20781498-.1703652-.33917083-.4165225-.365-.684l-.1-.989c-.05531973-.5481155.34308416-1.0377365.891-1.095z" fill="#01203d" data-original="#000000" style="" class=""/><path id="Shape" d="m30 50c-1.6568542 0-3 1.3431458-3 3s1.3431458 3 3 3 3-1.3431458 3-3-1.3431458-3-3-3zm0 4c-.5522847 0-1-.4477153-1-1s.4477153-1 1-1 1 .4477153 1 1-.4477153 1-1 1z" fill="#01203d" data-original="#000000" style="" class=""/><path id="Shape" d="m18.332 34.354c.4104951.0743702.8268224.111853 1.244.112 2.0652819.0005963 4.0227569-.9218413 5.337-2.515.0320931-.0313884.0621539-.0647893.09-.1.930501-1.1744552 2.3486196-1.8567889 3.847-1.851h2.3c1.4996356-.0066189 2.9191443.6762201 3.85 1.852.0270782.0352522.0564767.0686596.088.1 1.5983252 1.9381778 4.1210789 2.8585696 6.592 2.405 4.0037557-.7244201 7.0594802-3.9873814 7.52-8.03.274-2.29.482-4.79.618-7.431.0500091-.9354946-.3398678-1.8406451-1.054-2.447-.7004998-.6025499-1.6423901-.8430168-2.546-.65-5.3541368.9263291-10.7858187 1.3285643-16.218 1.201-1.016 0-1.989-.011-2.939-.028h-.008c-4.4482473.0090748-8.8882435-.3831818-13.266-1.172-.9109149-.1873447-1.8572095.058356-2.5619198.6651899s-1.0881453 1.5061781-1.0380802 2.4348101c.138 2.645.346 5.144.619 7.428.4622447 4.0431896 3.520852 7.3049996 7.526 8.026zm6.506-15.437-10.324 11.064c-.5301133-.6183328-.9517356-1.3219384-1.247-2.081l8.51-9.126c.98.056 1.991.107 3.061.143zm21.793-1.162c.2961835-.0629673.6047349.0170413.833.216.2412428.2027579.3727966.5073699.355.822-.134 2.6-.338 5.05-.607 7.3-.3605634 3.1720555-2.7583751 5.7324307-5.9 6.3-1.7870651.3285645-3.6096106-.3556111-4.739-1.779-.0271416-.0333197-.0561902-.0650395-.087-.095-1.3095811-1.5990843-3.2691069-2.5241303-5.336-2.519h-2.3c-2.0647308-.0068805-4.0231975.9147077-5.334 2.51-.0318182.0313544-.0615485.0647593-.089.1-1.1300669 1.4224586-2.952037 2.1064183-4.739 1.779-.9532444-.1797628-1.8603733-.5501653-2.667-1.089l11.493-12.319c.807.012 1.634.019 2.486.019 5.5710137.1287865 11.1412533-.2882028 16.631-1.245zm-34.092.217c.2287237-.198843.5375085-.278816.834-.216 1.9317666.3872579 3.8843842.6620534 5.848.823l-6.488 6.958c-.237-2.091-.423-4.35-.548-6.742-.0183621-.3148037.1128383-.6198262.354-.823z" fill="#01203d" data-original="#000000" style="" class=""/></g></g></g></svg>
